  0
SECTION
  2
HEADER
  9
$ACADVER
  1
AC1015
  9
$ACADMAINTVER
 70
     6
  9
$DWGCODEPAGE
  3
ANSI_1252
  9
$INSBASE
 10
0.0
 20
0.0
 30
0.0
  9
$EXTMIN
 10
0.0
 20
0.0
 30
0.0
  9
$EXTMAX
 10
7.0
 20
7.0
 30
0.0
  9
$LIMMIN
 10
0.0
 20
0.0
  9
$LIMMAX
 10
7.0
 20
7.0
  9
$ORTHOMODE
 70
     0
  9
$REGENMODE
 70
     1
  9
$FILLMODE
 70
     1
  9
$QTEXTMODE
 70
     0
  9
$MIRRTEXT
 70
     1
  9
$LTSCALE
 40
1.0
  9
$ATTMODE
 70
     1
  9
$TEXTSIZE
 40
0.1377952756
  9
$TRACEWID
 40
0.05
  9
$TEXTSTYLE
  7
Standard
  9
$CLAYER
  8
0
  9
$CELTYPE
  6
ByLayer
  9
$CECOLOR
 62
   256
  9
$CELTSCALE
 40
1.0
  9
$DISPSILH
 70
     0
  9
$DIMSCALE
 40
1.0
  9
$DIMASZ
 40
0.13
  9
$DIMEXO
 40
0.0393700787
  9
$DIMDLI
 40
0.38
  9
$DIMRND
 40
0.0
  9
$DIMDLE
 40
0.0
  9
$DIMEXE
 40
0.0393700787
  9
$DIMTP
 40
0.0
  9
$DIMTM
 40
0.0
  9
$DIMTXT
 40
0.1377952756
  9
$DIMCEN
 40
0.09
  9
$DIMTSZ
 40
0.0
  9
$DIMTOL
 70
     0
  9
$DIMLIM
 70
     0
  9
$DIMTIH
 70
     1
  9
$DIMTOH
 70
     1
  9
$DIMSE1
 70
     0
  9
$DIMSE2
 70
     0
  9
$DIMTAD
 70
     1
  9
$DIMZIN
 70
     1
  9
$DIMBLK
  1

  9
$DIMASO
 70
     1
  9
$DIMSHO
 70
     1
  9
$DIMPOST
  1

  9
$DIMAPOST
  1

  9
$DIMALT
 70
     0
  9
$DIMALTD
 70
     2
  9
$DIMALTF
 40
25.4
  9
$DIMLFAC
 40
2.0
  9
$DIMTOFL
 70
     0
  9
$DIMTVP
 40
0.0
  9
$DIMTIX
 70
     0
  9
$DIMSOXD
 70
     0
  9
$DIMSAH
 70
     0
  9
$DIMBLK1
  1

  9
$DIMBLK2
  1

  9
$DIMSTYLE
  2
Standard
  9
$DIMCLRD
 70
     0
  9
$DIMCLRE
 70
     0
  9
$DIMCLRT
 70
     0
  9
$DIMTFAC
 40
1.0
  9
$DIMGAP
 40
0.06
  9
$DIMJUST
 70
     0
  9
$DIMSD1
 70
     0
  9
$DIMSD2
 70
     0
  9
$DIMTOLJ
 70
     1
  9
$DIMTZIN
 70
     1
  9
$DIMALTZ
 70
     0
  9
$DIMALTTZ
 70
     0
  9
$DIMUPT
 70
     0
  9
$DIMDEC
 70
     2
  9
$DIMTDEC
 70
     2
  9
$DIMALTU
 70
     2
  9
$DIMALTTD
 70
     2
  9
$DIMTXSTY
  7
Standard
  9
$DIMAUNIT
 70
     0
  9
$DIMADEC
 70
     2
  9
$DIMALTRND
 40
0.0
  9
$DIMAZIN
 70
     0
  9
$DIMDSEP
 70
    46
  9
$DIMATFIT
 70
     3
  9
$DIMFRAC
 70
     0
  9
$DIMLDRBLK
  1

  9
$DIMLUNIT
 70
     2
  9
$DIMLWD
 70
    -2
  9
$DIMLWE
 70
    -2
  9
$DIMTMOVE
 70
     0
  9
$LUNITS
 70
     2
  9
$LUPREC
 70
     5
  9
$SKETCHINC
 40
0.1
  9
$FILLETRAD
 40
0.0
  9
$AUNITS
 70
     0
  9
$AUPREC
 70
     2
  9
$MENU
  1
.
  9
$ELEVATION
 40
0.0
  9
$PELEVATION
 40
0.0
  9
$THICKNESS
 40
0.0
  9
$LIMCHECK
 70
     0
  9
$CHAMFERA
 40
0.0
  9
$CHAMFERB
 40
0.0
  9
$CHAMFERC
 40
0.0
  9
$CHAMFERD
 40
0.0
  9
$SKPOLY
 70
     0
  9
$TDCREATE
 40
2460434.647180185
  9
$TDUCREATE
 40
2460434.813846852
  9
$TDUPDATE
 40
2460434.6471811
  9
$TDUUPDATE
 40
2460434.813847767
  9
$TDINDWG
 40
0.0000000116
  9
$TDUSRTIMER
 40
0.0000000116
  9
$USRTIMER
 70
     1
  9
$ANGBASE
 50
0.0
  9
$ANGDIR
 70
     0
  9
$PDMODE
 70
     0
  9
$PDSIZE
 40
-1.0
  9
$PLINEWID
 40
0.0
  9
$SPLFRAME
 70
     0
  9
$SPLINETYPE
 70
     6
  9
$SPLINESEGS
 70
     8
  9
$HANDSEED
  5
72
  9
$SURFTAB1
 70
     6
  9
$SURFTAB2
 70
     6
  9
$SURFTYPE
 70
     6
  9
$SURFU
 70
     6
  9
$SURFV
 70
     6
  9
$UCSBASE
  2

  9
$UCSNAME
  2

  9
$UCSORG
 10
0.0
 20
0.0
 30
0.0
  9
$UCSXDIR
 10
1.0
 20
0.0
 30
0.0
  9
$UCSYDIR
 10
0.0
 20
1.0
 30
0.0
  9
$UCSORTHOREF
  2

  9
$UCSORTHOVIEW
 70
     0
  9
$UCSORGTOP
 10
0.0
 20
0.0
 30
0.0
  9
$UCSORGBOTTOM
 10
0.0
 20
0.0
 30
0.0
  9
$UCSORGLEFT
 10
0.0
 20
0.0
 30
0.0
  9
$UCSORGRIGHT
 10
0.0
 20
0.0
 30
0.0
  9
$UCSORGFRONT
 10
0.0
 20
0.0
 30
0.0
  9
$UCSORGBACK
 10
0.0
 20
0.0
 30
0.0
  9
$PUCSBASE
  2

  9
$PUCSNAME
  2

  9
$PUCSORG
 10
0.0
 20
0.0
 30
0.0
  9
$PUCSXDIR
 10
1.0
 20
0.0
 30
0.0
  9
$PUCSYDIR
 10
0.0
 20
1.0
 30
0.0
  9
$PUCSORTHOREF
  2

  9
$PUCSORTHOVIEW
 70
     0
  9
$PUCSORGTOP
 10
0.0
 20
0.0
 30
0.0
  9
$PUCSORGBOTTOM
 10
0.0
 20
0.0
 30
0.0
  9
$PUCSORGLEFT
 10
0.0
 20
0.0
 30
0.0
  9
$PUCSORGRIGHT
 10
0.0
 20
0.0
 30
0.0
  9
$PUCSORGFRONT
 10
0.0
 20
0.0
 30
0.0
  9
$PUCSORGBACK
 10
0.0
 20
0.0
 30
0.0
  9
$USERI1
 70
     0
  9
$USERI2
 70
     0
  9
$USERI3
 70
     0
  9
$USERI4
 70
     0
  9
$USERI5
 70
     0
  9
$USERR1
 40
0.0
  9
$USERR2
 40
0.0
  9
$USERR3
 40
0.0
  9
$USERR4
 40
0.0
  9
$USERR5
 40
0.0
  9
$WORLDVIEW
 70
     1
  9
$SHADEDGE
 70
     3
  9
$SHADEDIF
 70
    70
  9
$TILEMODE
 70
     1
  9
$MAXACTVP
 70
    64
  9
$PINSBASE
 10
0.0
 20
0.0
 30
0.0
  9
$PLIMCHECK
 70
     0
  9
$PEXTMIN
 10
1.0000000000E+20
 20
1.0000000000E+20
 30
1.0000000000E+20
  9
$PEXTMAX
 10
-1.0000000000E+20
 20
-1.0000000000E+20
 30
-1.0000000000E+20
  9
$PLIMMIN
 10
0.0
 20
0.0
  9
$PLIMMAX
 10
12.0
 20
9.0
  9
$UNITMODE
 70
     0
  9
$VISRETAIN
 70
     1
  9
$PLINEGEN
 70
     0
  9
$PSLTSCALE
 70
     1
  9
$TREEDEPTH
 70
  3020
  9
$CMLSTYLE
  2
Standard
  9
$CMLJUST
 70
     0
  9
$CMLSCALE
 40
1.0
  9
$PROXYGRAPHICS
 70
     1
  9
$MEASUREMENT
 70
     0
  9
$CELWEIGHT
370
    -1
  9
$ENDCAPS
280
     0
  9
$JOINSTYLE
280
     0
  9
$LWDISPLAY
290
     1
  9
$INSUNITS
 70
     1
  9
$HYPERLINKBASE
  1

  9
$STYLESHEET
  1

  9
$XEDIT
290
     1
  9
$CEPSNTYPE
380
     0
  9
$PSTYLEMODE
290
     1
  9
$FINGERPRINTGUID
  2
{d644ce78-cfc5-406d-a4a2-dcf00ee481fa}
  9
$VERSIONGUID
  2
{FAEB1C32-E019-11D5-929B-00C0DF256EC4}
  9
$EXTNAMES
290
     1
  9
$PSVPSCALE
 40
0.0
  9
$OLESTARTUP
290
     0
  0
ENDSEC
  0
SECTION
  2
CLASSES
  0
CLASS
  1
ACDBDICTIONARYWDFLT
  2
AcDbDictionaryWithDefault
  3
ObjectDBX Classes
 90
        0
280
     0
281
     0
  0
CLASS
  1
VISUALSTYLE
  2
AcDbVisualStyle
  3
ObjectDBX Classes
 90
     4095
280
     0
281
     0
  0
CLASS
  1
MATERIAL
  2
AcDbMaterial
  3
ObjectDBX Classes
 90
     1153
280
     0
281
     0
  0
CLASS
  1
SCALE
  2
AcDbScale
  3
ObjectDBX Classes
 90
     1153
280
     0
281
     0
  0
CLASS
  1
TABLESTYLE
  2
AcDbTableStyle
  3
ObjectDBX Classes
 90
     4095
280
     0
281
     0
  0
CLASS
  1
MLEADERSTYLE
  2
AcDbMLeaderStyle
  3
ACDB_MLEADERSTYLE_CLASS
 90
     4095
280
     0
281
     0
  0
CLASS
  1
SUN
  2
AcDbSun
  3
SCENEOE
 90
     1153
280
     0
281
     0
  0
CLASS
  1
ACDBPLACEHOLDER
  2
AcDbPlaceHolder
  3
ObjectDBX Classes
 90
        0
280
     0
281
     0
  0
CLASS
  1
LAYOUT
  2
AcDbLayout
  3
ObjectDBX Classes
 90
        0
280
     0
281
     0
  0
ENDSEC
  0
SECTION
  2
TABLES
  0
TABLE
  2
VPORT
  5
8
330
0
100
AcDbSymbolTable
 70
     1
  0
VPORT
  5
29
330
8
100
AcDbSymbolTableRecord
100
AcDbViewportTableRecord
  2
*Active
 70
     0
 10
0.0
 20
0.0
 11
1.0
 21
1.0
 12
3.5
 22
3.5
 13
0.0
 23
0.0
 14
0.5
 24
0.5
 15
0.5
 25
0.5
 16
0.0
 26
0.0
 36
1.0
 17
0.0
 27
0.0
 37
0.0
 40
7.0
 41
1.0
 42
50.0
 43
0.0
 44
0.0
 50
0.0
 51
0.0
 71
     0
 72
  2000
 73
     1
 74
     3
 75
     0
 76
     0
 77
     0
 78
     0
281
     0
 65
     1
110
0.0
120
0.0
130
0.0
111
1.0
121
0.0
131
0.0
112
0.0
122
1.0
132
0.0
 79
     0
146
0.0
  0
ENDTAB
  0
TABLE
  2
LTYPE
  5
5
330
0
100
AcDbSymbolTable
 70
     6
  0
LTYPE
  5
14
330
5
100
AcDbSymbolTableRecord
100
AcDbLinetypeTableRecord
  2
ByBlock
 70
     0
  3

 72
    65
 73
     0
 40
0.0
  0
LTYPE
  5
15
330
5
100
AcDbSymbolTableRecord
100
AcDbLinetypeTableRecord
  2
ByLayer
 70
     0
  3

 72
    65
 73
     0
 40
0.0
  0
LTYPE
  5
16
330
5
100
AcDbSymbolTableRecord
100
AcDbLinetypeTableRecord
  2
Continuous
 70
     0
  3
Solid line
 72
    65
 73
     0
 40
0.0
  0
LTYPE
  5
5E
330
5
100
AcDbSymbolTableRecord
100
AcDbLinetypeTableRecord
  2
HIDDEN
 70
     0
  3
Hidden __ __ __ __ __ __ __ __ __ __ __ __ __ __
 72
    65
 73
     2
 40
0.075
 49
0.05
 74
     0
 49
-0.025
 74
     0
  0
LTYPE
  5
5F
330
5
100
AcDbSymbolTableRecord
100
AcDbLinetypeTableRecord
  2
PHANTOM
 70
     0
  3
Phantom ______  __  __  ______  __  __  ______
 72
    65
 73
     6
 40
0.5
 49
0.25
 74
     0
 49
-0.05
 74
     0
 49
0.05
 74
     0
 49
-0.05
 74
     0
 49
0.05
 74
     0
 49
-0.05
 74
     0
  0
LTYPE
  5
60
330
5
100
AcDbSymbolTableRecord
100
AcDbLinetypeTableRecord
  2
CENTER
 70
     0
  3
Center ____ _ ____ _ ____ _ ____ _ ____ _ ____
 72
    65
 73
     4
 40
0.4
 49
0.25
 74
     0
 49
-0.05
 74
     0
 49
0.05
 74
     0
 49
-0.05
 74
     0
  0
LTYPE
  5
61
330
5
100
AcDbSymbolTableRecord
100
AcDbLinetypeTableRecord
  2
CENTERX2
 70
     0
  3
Center (2x) ________  __  ________  __  _____
 72
    65
 73
     4
 40
0.8
 49
0.5
 74
     0
 49
-0.1
 74
     0
 49
0.1
 74
     0
 49
-0.1
 74
     0
  0
LTYPE
  5
62
330
5
100
AcDbSymbolTableRecord
100
AcDbLinetypeTableRecord
  2
DOT2
 70
     0
  3
Dot (.5x) ........................................
 72
    65
 73
     2
 40
0.025
 49
0.0
 74
     0
 49
-0.025
 74
     0
  0
ENDTAB
  0
TABLE
  2
LAYER
  5
2
330
0
100
AcDbSymbolTable
 70
     1
  0
LAYER
  5
10
330
2
100
AcDbSymbolTableRecord
100
AcDbLayerTableRecord
  2
0
 70
     0
 62
     7
  6
Continuous
370
    -3
390
F
  0
ENDTAB
  0
TABLE
  2
STYLE
  5
3
330
0
100
AcDbSymbolTable
 70
     1
  0
STYLE
  5
11
330
3
100
AcDbSymbolTableRecord
100
AcDbTextStyleTableRecord
  2
Standard
 70
     0
 40
0.0
 41
1.0
 50
0.0
 71
     0
 42
0.1377952756
  3
txt
  4

  0
ENDTAB
  0
TABLE
  2
VIEW
  5
6
330
0
100
AcDbSymbolTable
 70
     0
  0
ENDTAB
  0
TABLE
  2
UCS
  5
7
330
0
100
AcDbSymbolTable
 70
     0
  0
ENDTAB
  0
TABLE
  2
APPID
  5
9
330
0
100
AcDbSymbolTable
 70
     1
  0
APPID
  5
12
330
9
100
AcDbSymbolTableRecord
100
AcDbRegAppTableRecord
  2
ACAD
 70
     0
  0
ENDTAB
  0
TABLE
  2
DIMSTYLE
  5
A
330
0
100
AcDbSymbolTable
 70
     1
100
AcDbDimStyleTable
  0
DIMSTYLE
105
27
330
A
100
AcDbSymbolTableRecord
100
AcDbDimStyleTableRecord
  2
Standard
 70
     0
178
     0
340
11
  0
ENDTAB
  0
TABLE
  2
BLOCK_RECORD
  5
1
330
0
100
AcDbSymbolTable
 70
     1
  0
BLOCK_RECORD
  5
1F
330
1
100
AcDbSymbolTableRecord
100
AcDbBlockTableRecord
  2
*Model_Space
340
22
  0
BLOCK_RECORD
  5
1B
330
1
100
AcDbSymbolTableRecord
100
AcDbBlockTableRecord
  2
*Paper_Space
340
1E
  0
BLOCK_RECORD
  5
23
330
1
100
AcDbSymbolTableRecord
100
AcDbBlockTableRecord
  2
*Paper_Space0
340
26
  0
ENDTAB
  0
ENDSEC
  0
SECTION
  2
BLOCKS
  0
BLOCK
  5
20
330
1F
100
AcDbEntity
  8
0
100
AcDbBlockBegin
  2
*Model_Space
 70
     0
 10
0.0
 20
0.0
 30
0.0
  3
*Model_Space
  1

  0
ENDBLK
  5
21
330
1F
100
AcDbEntity
  8
0
100
AcDbBlockEnd
  0
BLOCK
  5
1C
330
1B
100
AcDbEntity
 67
     1
  8
0
100
AcDbBlockBegin
  2
*Paper_Space
 70
     0
 10
0.0
 20
0.0
 30
0.0
  3
*Paper_Space
  1

  0
ENDBLK
  5
1D
330
1B
100
AcDbEntity
 67
     1
  8
0
100
AcDbBlockEnd
  0
BLOCK
  5
24
330
23
100
AcDbEntity
  8
0
100
AcDbBlockBegin
  2
*Paper_Space0
 70
     0
 10
0.0
 20
0.0
 30
0.0
  3
*Paper_Space0
  1

  0
ENDBLK
  5
25
330
23
100
AcDbEntity
  8
0
100
AcDbBlockEnd
  0
ENDSEC
  0
SECTION
  2
ENTITIES
  0
LINE
  5
63
330
1F
100
AcDbEntity
  8
0
  6
HIDDEN
 62
     7
100
AcDbLine
 10
0.0737596822
 20
0.1150247941
 30
0.0
 11
0.0737596822
 21
6.1150247941
 31
0.0
  0
LINE
  5
64
330
1F
100
AcDbEntity
  8
0
  6
HIDDEN
 62
     7
100
AcDbLine
 10
6.1921494087
 20
1.7237949892
 30
0.0
 11
3.1898197805
 21
6.9248106589
 31
0.0
  0
LINE
  5
65
330
1F
100
AcDbEntity
  8
0
  6
Continuous
 62
     7
370
    25
100
AcDbLine
 10
3.1898197805
 20
6.9248106589
 30
0.0
 11
3.1898197805
 21
6.9297933877
 31
0.0
  0
SPLINE
  5
66
330
1F
100
AcDbEntity
  8
0
  6
Continuous
 62
     7
370
    25
100
AcDbSpline
210
0.0
220
0.0
230
1.0
 70
     8
 71
     3
 72
    54
 73
    50
 74
     0
 42
0.00000001
 43
0.00000001
 40
0.0
 40
0.0
 40
0.0
 40
0.0
 40
0.0163018749699039
 40
0.0325818873063054
 40
0.0488410863298653
 40
0.0650805253958373
 40
0.0813012617090401
 40
0.0975043561351933
 40
0.1136908730087684
 40
0.1298618799375157
 40
0.1460184476038238
 40
0.1621616495630925
 40
0.1782925620392921
 40
0.1944122637178974
 40
0.2105218355363847
 40
0.2266223604724888
 40
0.2427149233304226
 40
0.2588006105252656
 40
0.27488050986573
 40
0.2909557103355201
 40
0.307027301873503
 40
0.3230963751529085
 40
0.3391640213597867
 40
0.355231331970939
 40
0.3712993985315563
 40
0.3873693124327863
 40
0.4034421646894585
 40
0.4195190457181911
 40
0.4356010451161069
 40
0.4516892514403823
 40
0.4677847519888486
 40
0.4838886325818689
 40
0.5000019773457026
 40
0.5312128674468445
 40
0.562392030158386
 40
0.5935473661242305
 40
0.6246867941241344
 40
0.6558182450771884
 40
0.68694965599909
 40
0.7180889639361466
 40
0.7492440998991632
 40
0.7804229828203639
 40
0.8116335135562949
 40
0.8428835689592491
 40
0.8741809960391481
 40
0.9055336062370273
 40
0.9369491698303067
 40
0.9684354104889066
 40
1.0
 40
1.0
 40
1.0
 40
1.0
 10
3.189819780512988
 20
6.924810658926098
 30
0.0
 10
3.174349784022214
 20
6.916260862127898
 30
0.0
 10
3.143430538032298
 20
6.899172734763099
 30
0.0
 10
3.096822551690758
 20
6.874027458823193
 30
0.0
 10
3.05008767590683
 20
6.84926153976698
 30
0.0
 10
3.003207160960715
 20
6.824908487368618
 30
0.0
 10
2.956186021876832
 20
6.800959340347575
 30
0.0
 10
2.909022917844783
 20
6.777416496255039
 30
0.0
 10
2.861718208102954
 20
6.754279314428099
 30
0.0
 10
2.814271797150242
 20
6.731547966910504
 30
0.0
 10
2.766683711163632
 20
6.709222408308388
 30
0.0
 10
2.718953943787668
 20
6.687302651385355
 30
0.0
 10
2.671082497393993
 20
6.665788693323943
 30
0.0
 10
2.623069372040219
 20
6.644680535455863
 30
0.0
 10
2.574914568423886
 20
6.623978177981082
 30
0.0
 10
2.526618087091036
 20
6.60368162138028
 30
0.0
 10
2.478179928647186
 20
6.583790866035931
 30
0.0
 10
2.429600093699931
 20
6.564305912332925
 30
0.0
 10
2.380878582873352
 20
6.54522676063083
 30
0.0
 10
2.33201539680316
 20
6.526553411270615
 30
0.0
 10
2.283010536136982
 20
6.508285864572167
 30
0.0
 10
2.233864001533098
 20
6.490424120834299
 30
0.0
 10
2.18457579366013
 20
6.472968180334268
 30
0.0
 10
2.135145913194314
 20
6.455918043326987
 30
0.0
 10
2.085574360825345
 20
6.439273710046332
 30
0.0
 10
2.035861137230224
 20
6.423035180698442
 30
0.0
 10
1.986006243166459
 20
6.407202455485406
 30
0.0
 10
1.936009679119648
 20
6.391775534515588
 30
0.0
 10
1.885871446614678
 20
6.376754418137364
 30
0.0
 10
1.835591543315249
 20
6.362139105692389
 30
0.0
 10
1.785169981319129
 20
6.347929600170477
 30
0.0
 10
1.734606718826556
 20
6.334125890825081
 30
0.0
 10
1.668077222593606
 20
6.316546615062663
 30
0.0
 10
1.585475762727001
 20
6.295776576048839
 30
0.0
 10
1.486664975863219
 20
6.272590112782186
 30
0.0
 10
1.387571642077533
 20
6.250991991896472
 30
0.0
 10
1.288195935753866
 20
6.230982260791492
 30
0.0
 10
1.188537834215439
 20
6.212560913534459
 30
0.0
 10
1.088597367966037
 20
6.195727958119872
 30
0.0
 10
0.9883745535804559
 20
6.180483392829256
 30
0.0
 10
0.8878694115203173
 20
6.166827233464096
 30
0.0
 10
0.7870819613506375
 20
6.154759427899934
 30
0.0
 10
0.6860122224574433
 20
6.144280170988053
 30
0.0
 10
0.5846602153654379
 20
6.135388728638504
 30
0.0
 10
0.4830259551465226
 20
6.128087834921368
 30
0.0
 10
0.3811094759481675
 20
6.122367243219725
 30
0.0
 10
0.2789107386811387
 20
6.118265282383358
 30
0.0
 10
0.176429976213813
 20
6.115638413084611
 30
0.0
 10
0.1080114531899811
 20
6.115229503136702
 30
0.0
 10
0.0737596822237588
 20
6.115024794100867
 30
0.0
  0
LINE
  5
67
330
1F
100
AcDbEntity
  8
0
  6
Continuous
 62
     7
370
    25
100
AcDbLine
 10
0.0737596822
 20
6.1150247941
 30
0.0
 11
0.0737596822
 21
6.1200075229
 31
0.0
  0
LINE
  5
68
330
1F
100
AcDbEntity
  8
0
  6
Continuous
 62
     7
370
    25
100
AcDbLine
 10
6.1921494087
 20
1.728777718
 30
0.0
 11
3.1898197805
 21
6.9297933877
 31
0.0
  0
LINE
  5
69
330
1F
100
AcDbEntity
  8
0
  6
Continuous
 62
     7
370
    25
100
AcDbLine
 10
6.1921494087
 20
1.7237949892
 30
0.0
 11
6.1921494087
 21
1.728777718
 31
0.0
  0
LINE
  5
6A
330
1F
100
AcDbEntity
  8
0
  6
Continuous
 62
     7
370
    25
100
AcDbLine
 10
6.1921494087
 20
1.7237949892
 30
0.0
 11
3.1898197805
 21
6.9248106589
 31
0.0
  0
SPLINE
  5
6B
330
1F
100
AcDbEntity
  8
0
  6
Continuous
 62
     7
370
    25
100
AcDbSpline
210
0.0
220
0.0
230
1.0
 70
     8
 71
     3
 72
    49
 73
    45
 74
     0
 42
0.00000001
 43
0.00000001
 40
0.0
 40
0.0
 40
0.0
 40
0.0
 40
0.0113817140437705
 40
0.0227591286230623
 40
0.0341326326638818
 40
0.0455026154935316
 40
0.0568694668011305
 40
0.0682335765979485
 40
0.0795953351775761
 40
0.0909551330759495
 40
0.1023133610312501
 40
0.1136704099437006
 40
0.1250266708352772
 40
0.1363825348093591
 40
0.1477383930103357
 40
0.1590946365831929
 40
0.1704516566330991
 40
0.1818098441850116
 40
0.1931695901433246
 40
0.2045312852515792
 40
0.2158953200522561
 40
0.2272620848466732
 40
0.2386319696550052
 40
0.2500053641764493
 40
0.3125347984529392
 40
0.375000394951667
 40
0.437467240016648
 40
0.5000004160932658
 40
0.5625300960999293
 40
0.6249957743977916
 40
0.6874625372189331
 40
0.7499954674090177
 40
0.7708432011619972
 40
0.7916803602492383
 40
0.8125093488292698
 40
0.8333325738906137
 40
0.8541524444207556
 40
0.8749713705716543
 40
0.8957917628232301
 40
0.916616031146285
 40
0.937446584166306
 40
0.9582858283296012
 40
0.979136167073208
 40
1.0
 40
1.0
 40
1.0
 40
1.0
 10
0.0737596822237588
 20
0.1150247941008617
 30
0.0
 10
0.0980345313817511
 20
0.1150667543282836
 30
0.0
 10
0.1465750598265472
 20
0.1151506589325706
 30
0.0
 10
0.2193704160709275
 20
0.1158139964581541
 30
0.0
 10
0.292135759040465
 20
0.1168708513615906
 30
0.0
 10
0.3648710866689839
 20
0.1183597705642124
 30
0.0
 10
0.4375763991866248
 20
0.1202704306452895
 30
0.0
 10
0.5102516962072308
 20
0.1226055965548326
 30
0.0
 10
0.5828969775086313
 20
0.125364527748773
 30
0.0
 10
0.6555122428238671
 20
0.1285474226076715
 30
0.0
 10
0.7280974918973662
 20
0.1321542280044206
 30
0.0
 10
0.8006527244700039
 20
0.1361849581764855
 30
0.0
 10
0.8731779402837551
 20
0.1406396093075898
 30
0.0
 10
0.9456731390790963
 20
0.1455181824103038
 30
0.0
 10
1.018138320601811
 20
0.1508206771961882
 30
0.0
 10
1.090573484579436
 20
0.1565470937163296
 30
0.0
 10
1.16297863080973
 20
0.1626974319284259
 30
0.0
 10
1.235353758831407
 20
0.169271691788084
 30
0.0
 10
1.307698869153964
 20
0.1762698733167095
 30
0.0
 10
1.380013958667757
 20
0.1836919762387099
 30
0.0
 10
1.452299037779269
 20
0.1915380013653784
 30
0.0
 10
1.524554066441675
 20
0.1998079454208189
 30
0.0
 10
1.59677919298193
 20
0.2085018203613887
 30
0.0
 10
1.777205101638649
 20
0.2312885483174541
 30
0.0
 10
2.065053257889968
 20
0.2731920585207691
 30
0.0
 10
2.458666318484589
 20
0.3434875159079757
 30
0.0
 10
2.84980686657049
 20
0.4264183057450039
 30
0.0
 10
3.238190216951049
 20
0.5219143594786715
 30
0.0
 10
3.623291590018815
 20
0.6297967714803031
 30
0.0
 10
4.004565247400492
 20
0.7499643915671004
 30
0.0
 10
4.381748981764109
 20
0.8823430564365412
 30
0.0
 10
4.671716938453584
 20
0.9947176420407714
 30
0.0
 10
4.877107186879565
 20
1.079407255989711
 30
0.0
 10
4.999754825748629
 20
1.131523276345396
 30
0.0
 10
5.121785246090664
 20
1.184928642268773
 30
0.0
 10
5.243198791175265
 20
1.239623574082278
 30
0.0
 10
5.363995384685665
 20
1.295607971822216
 30
0.0
 10
5.484174958801557
 20
1.352882003736225
 30
0.0
 10
5.60373783160062
 20
1.411445084085292
 30
0.0
 10
5.722682769389543
 20
1.471299374139323
 30
0.0
 10
5.841014362307176
 20
1.532436796351151
 30
0.0
 10
5.958715446611688
 20
1.594887499615119
 30
0.0
 10
6.075850105210678
 20
1.658538869499135
 30
0.0
 10
6.153374614685164
 20
1.702038258725766
 30
0.0
 10
6.192149408685327
 20
1.723794989182095
 30
0.0
  0
LINE
  5
6C
330
1F
100
AcDbEntity
  8
0
  6
Continuous
 62
     7
370
    25
100
AcDbLine
 10
0.0737596822
 20
0.1150247941
 30
0.0
 11
0.0737596822
 21
6.1150247941
 31
0.0
  0
SPLINE
  5
6D
330
1F
100
AcDbEntity
  8
0
  6
Continuous
 62
     7
370
    25
100
AcDbSpline
210
0.0
220
0.0
230
1.0
 70
    11
 71
     3
 72
    30
 73
    26
 74
     0
 42
0.00000001
 43
0.00000001
 40
0.0
 40
0.0
 40
0.0
 40
0.0
 40
0.0420591429751062
 40
0.0825926474969159
 40
0.1250300836080929
 40
0.1666869255802745
 40
0.207413776853082
 40
0.2501245486727823
 40
0.2922835376093394
 40
0.3331039210343254
 40
0.3751867299007781
 40
0.4382184239721809
 40
0.4997473718335209
 40
0.5415788985476961
 40
0.5820672956805124
 40
0.6247719902375118
 40
0.6664082587411055
 40
0.7071846039973086
 40
0.7498698976397261
 40
0.7922681545420943
 40
0.8330545741173073
 40
0.8749185987924576
 40
0.9175224483640061
 40
0.9581331302785637
 40
1.0
 40
1.0
 40
1.0
 40
1.0
 10
5.880732120434496
 20
2.122866341705016
 30
0.0
 10
5.883568664715335
 20
2.11795915996865
 30
0.0
 10
5.887970856374825
 20
2.107649523725893
 30
0.0
 10
5.889739217372306
 20
2.090714212547391
 30
0.0
 10
5.886520872032284
 20
2.074120544229174
 30
0.0
 10
5.879529251235365
 20
2.058715392957135
 30
0.0
 10
5.868519116548474
 20
2.045737363808345
 30
0.0
 10
5.85445255323499
 20
2.036122802876089
 30
0.0
 10
5.838650590496002
 20
2.02972218973936
 30
0.0
 10
5.821760171651948
 20
2.02754242895654
 30
0.0
 10
5.802151657365711
 20
2.030020017704981
 30
0.0
 10
5.780907546423026
 20
2.038987917386755
 30
0.0
 10
5.765771764976447
 20
2.056360187144897
 30
0.0
 10
5.758114513768971
 20
2.074300611518141
 30
0.0
 10
5.75644638406354
 20
2.091260856439783
 30
0.0
 10
5.759845563027205
 20
2.107848363833711
 30
0.0
 10
5.766961220737622
 20
2.123230462276388
 30
0.0
 10
5.777962278110219
 20
2.13620180293889
 30
0.0
 10
5.79197914479651
 20
2.145935395598945
 30
0.0
 10
5.807742908467496
 20
2.15250038337795
 30
0.0
 10
5.824614744232492
 20
2.154805162325075
 30
0.0
 10
5.841486090518519
 20
2.152661217585039
 30
0.0
 10
5.857453810948623
 20
2.146825161836885
 30
0.0
 10
5.871185063569619
 20
2.136704761424985
 30
0.0
 10
5.87790854340785
 20
2.127751090273894
 30
0.0
 10
5.880732120434496
 20
2.122866341705016
 30
0.0
  0
SPLINE
  5
6E
330
1F
100
AcDbEntity
  8
0
  6
Continuous
 62
     7
370
    25
100
AcDbSpline
210
0.0
220
0.0
230
1.0
 70
    11
 71
     3
 72
    31
 73
    27
 74
     0
 42
0.00000001
 43
0.00000001
 40
0.0
 40
0.0
 40
0.0
 40
0.0
 40
0.0414693086811024
 40
0.0820496087329305
 40
0.1249608425200987
 40
0.1669317830043066
 40
0.2077471792720326
 40
0.2500103759060148
 40
0.2925733508354859
 40
0.3332649013449507
 40
0.3749914967669108
 40
0.4173509775476417
 40
0.4578774646899559
 40
0.5000043479825191
 40
0.5417650869830758
 40
0.5823382497277105
 40
0.6249660670546475
 40
0.6667242241059431
 40
0.7075056413327732
 40
0.750004026211576
 40
0.7925386539857104
 40
0.8332805726082582
 40
0.8749912747338472
 40
0.9176297623464881
 40
0.9581117677085231
 40
1.0
 40
1.0
 40
1.0
 40
1.0
 10
0.347887963770667
 20
0.6181714093761617
 30
0.0
 10
0.3478786338536455
 20
0.6125847442646717
 30
0.0
 10
0.34649239380431
 20
0.6015375366382067
 30
0.0
 10
0.3395676209799305
 20
0.5859928628221125
 30
0.0
 10
0.3285979097292487
 20
0.5729741289126897
 30
0.0
 10
0.3150467018885247
 20
0.5626333763603256
 30
0.0
 10
0.2993295142634187
 20
0.5561005770667208
 30
0.0
 10
0.2824387322048736
 20
0.5537298556199778
 30
0.0
 10
0.265432497148022
 20
0.5550097742573926
 30
0.0
 10
0.2493893477061278
 20
0.5607461830143111
 30
0.0
 10
0.2355800662296144
 20
0.5705662622413297
 30
0.0
 10
0.2244244587181511
 20
0.5833043703262228
 30
0.0
 10
0.2174334535438925
 20
0.5988460229701857
 30
0.0
 10
0.2153412883241635
 20
0.6155998029306913
 30
0.0
 10
0.2173061886159669
 20
0.6323692814719692
 30
0.0
 10
0.2240900956290572
 20
0.6479779178103037
 30
0.0
 10
0.2349438691995402
 20
0.661012936824927
 30
0.0
 10
0.2484494322440111
 20
0.6713103588813025
 30
0.0
 10
0.2642159413820857
 20
0.6777390611801404
 30
0.0
 10
0.2811546190596413
 20
0.6799466632491681
 30
0.0
 10
0.2981772615397106
 20
0.6785393481133458
 30
0.0
 10
0.3142093908606227
 20
0.6728038562165201
 30
0.0
 10
0.3281166531059281
 20
0.6630649387915892
 30
0.0
 10
0.3394265037167472
 20
0.650420341583672
 30
0.0
 10
0.3465289234008951
 20
0.6349177166582562
 30
0.0
 10
0.3478973879386575
 20
0.6238145110667241
 30
0.0
 10
0.347887963770667
 20
0.6181714093761617
 30
0.0
  0
SPLINE
  5
6F
330
1F
100
AcDbEntity
  8
0
  6
Continuous
 62
     7
370
    25
100
AcDbSpline
210
0.0
220
0.0
230
1.0
 70
    11
 71
     3
 72
    28
 73
    24
 74
     0
 42
0.00000001
 43
0.00000001
 40
0.0
 40
0.0
 40
0.0
 40
0.0
 40
0.0419624425541368
 40
0.0823999684701806
 40
0.1251083231532289
 40
0.1663550151990366
 40
0.2071673882270458
 40
0.2503033764543046
 40
0.312851789213946
 40
0.3751453156298302
 40
0.418860965773557
 40
0.4594206276219119
 40
0.5002673741687574
 40
0.5416015047229902
 40
0.5819384208718812
 40
0.6253588031987616
 40
0.6666916079128011
 40
0.7076141458130517
 40
0.7505658058850668
 40
0.8136554846032911
 40
0.8753514324348138
 40
0.9384480945833527
 40
1.0
 40
1.0
 40
1.0
 40
1.0
 10
3.877155990979496
 20
5.589478194613704
 30
0.0
 10
3.880087676995338
 20
5.584449610416874
 30
0.0
 10
3.884511916259178
 20
5.573871554919692
 30
0.0
 10
3.885939551488236
 20
5.55641920451057
 30
0.0
 10
3.882003904110856
 20
5.539548976048756
 30
0.0
 10
3.874200136095056
 20
5.524062790972311
 30
0.0
 10
3.862421428440839
 20
5.511167402527247
 30
0.0
 10
3.845353630912854
 20
5.500098332545076
 30
0.0
 10
3.822909615449281
 20
5.49264553056438
 30
0.0
 10
3.799202132344333
 20
5.493812636107373
 30
0.0
 10
3.779778152152878
 20
5.500040394051211
 30
0.0
 10
3.765245071811142
 20
5.509832264557543
 30
0.0
 10
3.754633641663484
 20
5.523274098326122
 30
0.0
 10
3.747981154765375
 20
5.539044846770466
 30
0.0
 10
3.746892280090313
 20
5.556538925670265
 30
0.0
 10
3.751262527226679
 20
5.573402466281531
 30
0.0
 10
3.75933373563157
 20
5.588865904815866
 30
0.0
 10
3.771046594824687
 20
5.601789779993121
 30
0.0
 10
3.787930028425586
 20
5.6132078547062
 30
0.0
 10
3.810199216605764
 20
5.621194825998412
 30
0.0
 10
3.836628696388679
 20
5.620077531245133
 30
0.0
 10
3.861190266166191
 20
5.610230306868413
 30
0.0
 10
3.87285569649293
 20
5.596854289045375
 30
0.0
 10
3.877155990979496
 20
5.589478194613703
 30
0.0
  0
SPLINE
  5
70
330
1F
100
AcDbEntity
  8
0
  6
Continuous
 62
     7
370
    25
100
AcDbSpline
210
0.0
220
0.0
230
1.0
 70
    11
 71
     3
 72
    27
 73
    23
 74
     0
 42
0.00000001
 43
0.00000001
 40
0.0
 40
0.0
 40
0.0
 40
0.0
 40
0.0408147250765998
 40
0.0813977270189002
 40
0.1252010517033184
 40
0.1671118683294784
 40
0.2081260178311715
 40
0.2504798195130613
 40
0.313857677434181
 40
0.3753052764686013
 40
0.4379772353533147
 40
0.4999521904054197
 40
0.5415378734339271
 40
0.5821201093117339
 40
0.6251746731992396
 40
0.6666284100598141
 40
0.7075759117485791
 40
0.7504730753375659
 40
0.8137079531920456
 40
0.8753646836885396
 40
0.9388233167425508
 40
1.0
 40
1.0
 40
1.0
 40
1.0
 10
0.3575182910890871
 20
4.620113102905795
 30
0.0
 10
0.357513204173315
 20
4.614456891897662
 30
0.0
 10
0.3559141953742062
 20
4.603258547951098
 30
0.0
 10
0.3483170534077183
 20
4.587503016207164
 30
0.0
 10
0.3365463667992715
 20
4.574476356585375
 30
0.0
 10
0.3223132892380636
 20
4.564153102211243
 30
0.0
 10
0.3061645331598786
 20
4.557550440199383
 30
0.0
 10
0.2860644697410867
 20
4.554398892084333
 30
0.0
 10
0.2625514731295838
 20
4.556740902107802
 30
0.0
 10
0.2395021785019485
 20
4.569686714171494
 30
0.0
 10
0.2225489462145007
 20
4.589991640946945
 30
0.0
 10
0.217887491340533
 20
4.61320733732325
 30
0.0
 10
0.2203381858880664
 20
4.633066481448434
 30
0.0
 10
0.2275745768494359
 20
4.648997537372241
 30
0.0
 10
0.2390381855373577
 20
4.662093144322085
 30
0.0
 10
0.2531402088732559
 20
4.672334226103127
 30
0.0
 10
0.2694037136320376
 20
4.678704448350887
 30
0.0
 10
0.2896295880492641
 20
4.681391982205147
 30
0.0
 10
0.3131205339218753
 20
4.678616985809952
 30
0.0
 10
0.3363104163842112
 20
4.665897716133658
 30
0.0
 10
0.353894879444789
 20
4.646051531120672
 30
0.0
 10
0.3575259158038037
 20
4.628591127163768
 30
0.0
 10
0.3575182910890871
 20
4.620113102905796
 30
0.0
  0
ENDSEC
  0
SECTION
  2
OBJECTS
  0
DICTIONARY
  5
C
330
0
100
AcDbDictionary
281
     1
  3
ACAD_GROUP
350
D
  3
ACAD_LAYOUT
350
1A
  3
ACAD_MLINESTYLE
350
17
  3
ACAD_PLOTSETTINGS
350
19
  3
ACAD_PLOTSTYLENAME
350
E
  3
ACAD_SCALELIST
350
47
  3
DWGPROPS
350
71
  0
DICTIONARY
  5
D
102
{ACAD_REACTORS
330
C
102
}
330
C
100
AcDbDictionary
281
     1
  0
DICTIONARY
  5
1A
102
{ACAD_REACTORS
330
C
102
}
330
C
100
AcDbDictionary
281
     1
  3
Layout1
350
1E
  3
Layout2
350
26
  3
Model
350
22
  0
DICTIONARY
  5
17
102
{ACAD_REACTORS
330
C
102
}
330
C
100
AcDbDictionary
281
     1
  3
Standard
350
18
  0
DICTIONARY
  5
19
102
{ACAD_REACTORS
330
C
102
}
330
C
100
AcDbDictionary
281
     1
  0
ACDBDICTIONARYWDFLT
  5
E
102
{ACAD_REACTORS
330
C
102
}
330
C
100
AcDbDictionary
281
     1
  3
Normal
350
F
100
AcDbDictionaryWithDefault
340
F
  0
DICTIONARY
  5
47
102
{ACAD_REACTORS
330
C
102
}
330
C
100
AcDbDictionary
281
     1
  3
A0
350
48
  3
A1
350
49
  3
A2
350
4A
  3
A3
350
4B
  3
A4
350
4C
  3
A5
350
4D
  3
A6
350
4E
  3
A7
350
4F
  3
A8
350
50
  3
A9
350
51
  3
B1
350
52
  3
B2
350
53
  3
B3
350
54
  3
B4
350
55
  3
B5
350
56
  3
B6
350
57
  3
B7
350
58
  0
XRECORD
  5
71
102
{ACAD_REACTORS
330
C
102
}
330
C
100
AcDbXrecord
280
     1
  1
DWGPROPS COOKIE
  2

  3

  4

  6

  7

  8
jkirkvold
  9

300
=
301
=
302
=
303
=
304
=
305
=
306
=
307
=
308
=
309
=
 40
0.0
 41
2460434.813846852
 42
2460434.813847767
  1

 90
        0
  0
LAYOUT
  5
1E
102
{ACAD_REACTORS
330
1A
102
}
330
1A
100
AcDbPlotSettings
  1

  2
none_device
  4

  6

 40
0.0
 41
0.0
 42
0.0
 43
0.0
 44
0.0
 45
0.0
 46
0.0
 47
0.0
 48
0.0
 49
0.0
140
0.0
141
0.0
142
1.0
143
1.0
 70
   688
 72
     0
 73
     0
 74
     5
  7

 75
    16
147
1.0
148
0.0
149
0.0
100
AcDbLayout
  1
Layout1
 70
     1
 71
     1
 10
0.0
 20
0.0
 11
12.0
 21
9.0
 12
0.0
 22
0.0
 32
0.0
 14
1.0000000000E+20
 24
1.0000000000E+20
 34
1.0000000000E+20
 15
-1.0000000000E+20
 25
-1.0000000000E+20
 35
-1.0000000000E+20
146
0.0
 13
0.0
 23
0.0
 33
0.0
 16
1.0
 26
0.0
 36
0.0
 17
0.0
 27
1.0
 37
0.0
 76
     0
330
1B
  0
LAYOUT
  5
26
102
{ACAD_REACTORS
330
1A
102
}
330
1A
100
AcDbPlotSettings
  1

  2
none_device
  4

  6

 40
0.0
 41
0.0
 42
0.0
 43
0.0
 44
0.0
 45
0.0
 46
0.0
 47
0.0
 48
0.0
 49
0.0
140
0.0
141
0.0
142
1.0
143
1.0
 70
   688
 72
     0
 73
     0
 74
     5
  7

 75
    16
147
1.0
148
0.0
149
0.0
100
AcDbLayout
  1
Layout2
 70
     1
 71
     2
 10
0.0
 20
0.0
 11
0.0
 21
0.0
 12
0.0
 22
0.0
 32
0.0
 14
0.0
 24
0.0
 34
0.0
 15
0.0
 25
0.0
 35
0.0
146
0.0
 13
0.0
 23
0.0
 33
0.0
 16
1.0
 26
0.0
 36
0.0
 17
0.0
 27
1.0
 37
0.0
 76
     0
330
23
  0
LAYOUT
  5
22
102
{ACAD_REACTORS
330
1A
102
}
330
1A
100
AcDbPlotSettings
  1

  2
none_device
  4
Letter_(8.50_x_11.00_Inches)
  6

 40
6.35
 41
6.35
 42
6.35000508
 43
6.35000508
 44
215.9
 45
279.4
 46
0.0
 47
0.0
 48
0.0
 49
0.0
140
0.0
141
0.0
142
1.0
143
1.0
 70
  1712
 72
     0
 73
     0
 74
     0
  7

 75
     0
147
1.0
148
0.0
149
0.0
100
AcDbLayout
  1
Model
 70
     1
 71
     0
 10
0.0
 20
0.0
 11
7.0
 21
7.0
 12
0.0
 22
0.0
 32
0.0
 14
0.0
 24
0.0
 34
0.0
 15
7.0
 25
7.0
 35
0.0
146
0.0
 13
0.0
 23
0.0
 33
0.0
 16
1.0
 26
0.0
 36
0.0
 17
0.0
 27
1.0
 37
0.0
 76
     0
330
1F
331
29
  0
MLINESTYLE
  5
18
102
{ACAD_REACTORS
330
17
102
}
330
17
100
AcDbMlineStyle
  2
Standard
 70
     0
  3

 62
   256
 51
90.0
 52
90.0
 71
     2
 49
0.5
 62
   256
  6
BYLAYER
 49
-0.5
 62
   256
  6
BYLAYER
  0
ACDBPLACEHOLDER
  5
F
102
{ACAD_REACTORS
330
E
102
}
330
E
  0
SCALE
  5
48
102
{ACAD_REACTORS
330
47
102
}
330
47
100
AcDbScale
 70
     0
300
1:1
140
1.0
141
1.0
290
     1
  0
SCALE
  5
49
102
{ACAD_REACTORS
330
47
102
}
330
47
100
AcDbScale
 70
     0
300
1/128" = 1'-0"
140
0.0078125
141
12.0
290
     0
  0
SCALE
  5
4A
102
{ACAD_REACTORS
330
47
102
}
330
47
100
AcDbScale
 70
     0
300
1/64" = 1'-0"
140
0.015625
141
12.0
290
     0
  0
SCALE
  5
4B
102
{ACAD_REACTORS
330
47
102
}
330
47
100
AcDbScale
 70
     0
300
1/32" = 1'-0"
140
0.03125
141
12.0
290
     0
  0
SCALE
  5
4C
102
{ACAD_REACTORS
330
47
102
}
330
47
100
AcDbScale
 70
     0
300
1/16" = 1'-0"
140
0.0625
141
12.0
290
     0
  0
SCALE
  5
4D
102
{ACAD_REACTORS
330
47
102
}
330
47
100
AcDbScale
 70
     0
300
3/32" = 1'-0"
140
0.09375
141
12.0
290
     0
  0
SCALE
  5
4E
102
{ACAD_REACTORS
330
47
102
}
330
47
100
AcDbScale
 70
     0
300
1/8" = 1'-0"
140
0.125
141
12.0
290
     0
  0
SCALE
  5
4F
102
{ACAD_REACTORS
330
47
102
}
330
47
100
AcDbScale
 70
     0
300
3/16" = 1'-0"
140
0.1875
141
12.0
290
     0
  0
SCALE
  5
50
102
{ACAD_REACTORS
330
47
102
}
330
47
100
AcDbScale
 70
     0
300
1/4" = 1'-0"
140
0.25
141
12.0
290
     0
  0
SCALE
  5
51
102
{ACAD_REACTORS
330
47
102
}
330
47
100
AcDbScale
 70
     0
300
3/8" = 1'-0"
140
0.375
141
12.0
290
     0
  0
SCALE
  5
52
102
{ACAD_REACTORS
330
47
102
}
330
47
100
AcDbScale
 70
     0
300
1/2" = 1'-0"
140
0.5
141
12.0
290
     0
  0
SCALE
  5
53
102
{ACAD_REACTORS
330
47
102
}
330
47
100
AcDbScale
 70
     0
300
3/4" = 1'-0"
140
0.75
141
12.0
290
     0
  0
SCALE
  5
54
102
{ACAD_REACTORS
330
47
102
}
330
47
100
AcDbScale
 70
     0
300
1" = 1'-0"
140
1.0
141
12.0
290
     0
  0
SCALE
  5
55
102
{ACAD_REACTORS
330
47
102
}
330
47
100
AcDbScale
 70
     0
300
1-1/2" = 1'-0"
140
1.5
141
12.0
290
     0
  0
SCALE
  5
56
102
{ACAD_REACTORS
330
47
102
}
330
47
100
AcDbScale
 70
     0
300
3" = 1'-0"
140
3.0
141
12.0
290
     0
  0
SCALE
  5
57
102
{ACAD_REACTORS
330
47
102
}
330
47
100
AcDbScale
 70
     0
300
6" = 1'-0"
140
6.0
141
12.0
290
     0
  0
SCALE
  5
58
102
{ACAD_REACTORS
330
47
102
}
330
47
100
AcDbScale
 70
     0
300
1'-0" = 1'-0"
140
12.0
141
12.0
290
     0
  0
ENDSEC
  0
EOF
